<mxfile host="app.diagrams.net" modified="2023-07-20T13:05:43.321Z" agent="Mozilla/5.0 (Macintosh; Intel Mac OS X 10_15_7) AppleWebKit/537.36 (KHTML, like Gecko) Chrome/114.0.0.0 Safari/537.36" etag="SEU7T9PvADeSCztaOSbT" version="21.5.1" type="github">
  <diagram id="C5RBs43oDa-KdzZeNtuy" name="Page-1">
    <mxGraphModel dx="1420" dy="756" grid="1" gridSize="10" guides="1" tooltips="1" connect="1" arrows="1" fold="1" page="1" pageScale="1" pageWidth="827" pageHeight="1169" math="0" shadow="0">
      <root>
        <mxCell id="WIyWlLk6GJQsqaUBKTNV-0" />
        <mxCell id="WIyWlLk6GJQsqaUBKTNV-1" parent="WIyWlLk6GJQsqaUBKTNV-0" />
        <mxCell id="ttG2j6wkBdkgUyU_0jim-1" value="压单" style="swimlane;childLayout=stackLayout;resizeParent=1;resizeParentMax=0;startSize=20;html=1;" vertex="1" parent="WIyWlLk6GJQsqaUBKTNV-1">
          <mxGeometry x="90" y="95" width="660" height="715" as="geometry" />
        </mxCell>
        <mxCell id="ttG2j6wkBdkgUyU_0jim-2" value="工作流" style="swimlane;startSize=20;html=1;" vertex="1" parent="ttG2j6wkBdkgUyU_0jim-1">
          <mxGeometry y="20" width="220" height="695" as="geometry" />
        </mxCell>
        <mxCell id="ttG2j6wkBdkgUyU_0jim-32" value="" style="edgeStyle=orthogonalEdgeStyle;rounded=0;orthogonalLoop=1;jettySize=auto;html=1;fontFamily=Verdana;fontSize=8;fontColor=default;" edge="1" parent="ttG2j6wkBdkgUyU_0jim-2" source="ttG2j6wkBdkgUyU_0jim-30" target="ttG2j6wkBdkgUyU_0jim-31">
          <mxGeometry relative="1" as="geometry" />
        </mxCell>
        <mxCell id="ttG2j6wkBdkgUyU_0jim-30" value="开始" style="strokeWidth=2;html=1;shape=mxgraph.flowchart.start_2;whiteSpace=wrap;rounded=1;shadow=0;labelBackgroundColor=none;strokeColor=default;fontFamily=Verdana;fontSize=8;fontColor=default;fillColor=default;" vertex="1" parent="ttG2j6wkBdkgUyU_0jim-2">
          <mxGeometry x="70" y="95" width="80" height="80" as="geometry" />
        </mxCell>
        <mxCell id="ttG2j6wkBdkgUyU_0jim-31" value="task发起特征查询" style="whiteSpace=wrap;html=1;fontSize=8;fontFamily=Verdana;strokeWidth=2;rounded=1;shadow=0;labelBackgroundColor=none;" vertex="1" parent="ttG2j6wkBdkgUyU_0jim-2">
          <mxGeometry x="50" y="273" width="120" height="60" as="geometry" />
        </mxCell>
        <mxCell id="ttG2j6wkBdkgUyU_0jim-45" value="Y" style="edgeStyle=orthogonalEdgeStyle;rounded=0;orthogonalLoop=1;jettySize=auto;html=1;entryX=0.5;entryY=1;entryDx=0;entryDy=0;fontFamily=Verdana;fontSize=8;fontColor=default;" edge="1" parent="ttG2j6wkBdkgUyU_0jim-2" source="ttG2j6wkBdkgUyU_0jim-41" target="ttG2j6wkBdkgUyU_0jim-31">
          <mxGeometry relative="1" as="geometry" />
        </mxCell>
        <mxCell id="ttG2j6wkBdkgUyU_0jim-47" value="" style="edgeStyle=orthogonalEdgeStyle;rounded=0;orthogonalLoop=1;jettySize=auto;html=1;fontFamily=Verdana;fontSize=8;fontColor=default;" edge="1" parent="ttG2j6wkBdkgUyU_0jim-2" source="ttG2j6wkBdkgUyU_0jim-41" target="ttG2j6wkBdkgUyU_0jim-46">
          <mxGeometry relative="1" as="geometry" />
        </mxCell>
        <mxCell id="ttG2j6wkBdkgUyU_0jim-41" value="状态是否RETRY" style="strokeWidth=2;html=1;shape=mxgraph.flowchart.decision;whiteSpace=wrap;rounded=1;shadow=0;labelBackgroundColor=none;strokeColor=default;fontFamily=Verdana;fontSize=8;fontColor=default;fillColor=default;" vertex="1" parent="ttG2j6wkBdkgUyU_0jim-2">
          <mxGeometry x="60" y="412" width="100" height="100" as="geometry" />
        </mxCell>
        <mxCell id="ttG2j6wkBdkgUyU_0jim-46" value="结束" style="ellipse;whiteSpace=wrap;html=1;fontSize=8;fontFamily=Verdana;strokeWidth=2;rounded=1;shadow=0;labelBackgroundColor=none;" vertex="1" parent="ttG2j6wkBdkgUyU_0jim-2">
          <mxGeometry x="70" y="580" width="80" height="80" as="geometry" />
        </mxCell>
        <mxCell id="ttG2j6wkBdkgUyU_0jim-23" value="三方" style="swimlane;startSize=20;html=1;aspect=fixed;" vertex="1" parent="ttG2j6wkBdkgUyU_0jim-1">
          <mxGeometry x="220" y="20" width="220" height="695" as="geometry" />
        </mxCell>
        <mxCell id="ttG2j6wkBdkgUyU_0jim-35" value="调用三方" style="whiteSpace=wrap;html=1;fontSize=8;fontFamily=Verdana;strokeWidth=2;rounded=1;shadow=0;labelBackgroundColor=none;" vertex="1" parent="ttG2j6wkBdkgUyU_0jim-23">
          <mxGeometry x="44" y="273" width="120" height="60" as="geometry" />
        </mxCell>
        <mxCell id="ttG2j6wkBdkgUyU_0jim-37" value="处理结果、返回结果状态" style="whiteSpace=wrap;html=1;fontSize=8;fontFamily=Verdana;strokeWidth=2;rounded=1;shadow=0;labelBackgroundColor=none;" vertex="1" parent="ttG2j6wkBdkgUyU_0jim-23">
          <mxGeometry x="44" y="432" width="120" height="60" as="geometry" />
        </mxCell>
        <mxCell id="ttG2j6wkBdkgUyU_0jim-4" value="Vendor" style="swimlane;startSize=20;html=1;aspect=fixed;" vertex="1" parent="ttG2j6wkBdkgUyU_0jim-1">
          <mxGeometry x="440" y="20" width="220" height="695" as="geometry" />
        </mxCell>
        <mxCell id="ttG2j6wkBdkgUyU_0jim-36" value="返回数据" style="shape=parallelogram;html=1;strokeWidth=2;perimeter=parallelogramPerimeter;whiteSpace=wrap;rounded=1;arcSize=12;size=0.23;shadow=0;labelBackgroundColor=none;strokeColor=default;fontFamily=Verdana;fontSize=8;fontColor=default;fillColor=default;" vertex="1" parent="ttG2j6wkBdkgUyU_0jim-4">
          <mxGeometry x="60" y="273" width="100" height="60" as="geometry" />
        </mxCell>
        <mxCell id="ttG2j6wkBdkgUyU_0jim-38" style="edgeStyle=orthogonalEdgeStyle;rounded=0;orthogonalLoop=1;jettySize=auto;html=1;fontFamily=Verdana;fontSize=8;fontColor=default;" edge="1" parent="ttG2j6wkBdkgUyU_0jim-1" source="ttG2j6wkBdkgUyU_0jim-31" target="ttG2j6wkBdkgUyU_0jim-35">
          <mxGeometry relative="1" as="geometry" />
        </mxCell>
        <mxCell id="ttG2j6wkBdkgUyU_0jim-39" style="edgeStyle=orthogonalEdgeStyle;rounded=0;orthogonalLoop=1;jettySize=auto;html=1;fontFamily=Verdana;fontSize=8;fontColor=default;" edge="1" parent="ttG2j6wkBdkgUyU_0jim-1" source="ttG2j6wkBdkgUyU_0jim-35" target="ttG2j6wkBdkgUyU_0jim-36">
          <mxGeometry relative="1" as="geometry" />
        </mxCell>
        <mxCell id="ttG2j6wkBdkgUyU_0jim-40" style="edgeStyle=orthogonalEdgeStyle;rounded=0;orthogonalLoop=1;jettySize=auto;html=1;fontFamily=Verdana;fontSize=8;fontColor=default;" edge="1" parent="ttG2j6wkBdkgUyU_0jim-1" source="ttG2j6wkBdkgUyU_0jim-36" target="ttG2j6wkBdkgUyU_0jim-37">
          <mxGeometry relative="1" as="geometry">
            <Array as="points">
              <mxPoint x="540" y="482" />
            </Array>
          </mxGeometry>
        </mxCell>
        <mxCell id="ttG2j6wkBdkgUyU_0jim-42" style="edgeStyle=orthogonalEdgeStyle;rounded=0;orthogonalLoop=1;jettySize=auto;html=1;fontFamily=Verdana;fontSize=8;fontColor=default;" edge="1" parent="ttG2j6wkBdkgUyU_0jim-1" source="ttG2j6wkBdkgUyU_0jim-37" target="ttG2j6wkBdkgUyU_0jim-41">
          <mxGeometry relative="1" as="geometry" />
        </mxCell>
      </root>
    </mxGraphModel>
  </diagram>
</mxfile>
